<?xml version="1.0" encoding="UTF-8"?>
<!DOCTYPE svg PUBLIC "-//W3C//DTD SVG 1.1//EN" "http://www.w3.org/Graphics/SVG/1.1/DTD/svg11.dtd">
<svg xmlns="http://www.w3.org/2000/svg" version="1.1" width="418px" height="368px" style="shape-rendering:geometricPrecision; text-rendering:geometricPrecision; image-rendering:optimizeQuality; fill-rule:evenodd; clip-rule:evenodd" xmlns:xlink="http://www.w3.org/1999/xlink">
<g><path style="opacity:1" fill="#4ec3ee" d="M 249.5,49.5 C 245.292,47.9698 241.292,45.9698 237.5,43.5C 236.833,43.8333 236.167,44.1667 235.5,44.5C 239.201,45.7368 239.034,47.0702 235,48.5C 234.667,48.1667 234.333,47.8333 234,47.5C 232.86,50.5282 233.694,52.6949 236.5,54C 236.167,54.3333 235.833,54.6667 235.5,55C 237.313,61.3647 238.313,67.6981 238.5,74C 238.22,75.395 237.553,76.5617 236.5,77.5C 235.858,71.7154 234.025,66.3821 231,61.5C 230.617,62.056 230.117,62.3893 229.5,62.5C 228.402,61.603 228.402,60.7697 229.5,60C 227.408,59.0475 227.075,57.7141 228.5,56C 225.536,55.1597 225.203,54.1597 227.5,53C 225.624,51.9827 223.624,51.1494 221.5,50.5C 221.985,47.888 221.151,47.888 219,50.5C 218.5,49.5 218,48.5 217.5,47.5C 221.935,45.469 222.102,43.8024 218,42.5C 208.144,44.6325 197.977,44.4659 187.5,42C 186.549,42.7175 186.383,43.5509 187,44.5C 189.585,44.9632 191.752,46.1299 193.5,48C 192.027,48.7096 191.36,49.8762 191.5,51.5C 188.978,51.1281 186.978,51.9614 185.5,54C 185.833,54.3333 186.167,54.6667 186.5,55C 181.837,55.9932 177.837,58.1598 174.5,61.5C 172.983,60.0892 171.649,60.2559 170.5,62C 170.833,62.3333 171.167,62.6667 171.5,63C 169.962,64.9321 168.795,67.0988 168,69.5C 167.823,73.3563 167.323,77.023 166.5,80.5C 165.784,80.2169 164.951,79.8836 164,79.5C 163.762,75.1521 164.095,70.8188 165,66.5C 165.333,67.1667 165.667,67.8333 166,68.5C 166.792,66.4127 167.959,64.5793 169.5,63C 167.177,60.9506 164.677,59.1172 162,57.5C 158.498,59.4412 156.331,62.4412 155.5,66.5C 152.461,67.8861 150.127,69.8861 148.5,72.5C 164.867,43.8194 189.533,31.986 222.5,37C 227.894,38.4647 233.228,40.1314 238.5,42C 242.58,44.0285 246.246,46.5285 249.5,49.5 Z"/></g>
<g><path style="opacity:1" fill="#5ccaf3" d="M 229.5,62.5 C 229.737,63.791 229.404,64.791 228.5,65.5C 225.172,61.0126 221.005,57.346 216,54.5C 213.153,56.0675 210.153,55.7342 207,53.5C 201.961,54.8591 196.795,55.5258 191.5,55.5C 191.617,57.4835 190.95,59.1502 189.5,60.5C 186.168,62.2765 183.168,64.2765 180.5,66.5C 180.896,69.0444 180.229,71.2111 178.5,73C 179.259,75.5634 180.259,78.0634 181.5,80.5C 179.957,83.086 178.291,85.586 176.5,88C 177.762,94.1791 179.095,100.346 180.5,106.5C 179.25,106.577 178.417,107.244 178,108.5C 177.506,106.866 177.34,105.199 177.5,103.5C 176.167,103.5 174.833,103.5 173.5,103.5C 173.657,102.127 173.49,100.793 173,99.5C 168.532,94.0514 166.365,87.7181 166.5,80.5C 167.323,77.023 167.823,73.3563 168,69.5C 168.795,67.0988 169.962,64.9321 171.5,63C 171.167,62.6667 170.833,62.3333 170.5,62C 171.649,60.2559 172.983,60.0892 174.5,61.5C 177.837,58.1598 181.837,55.9932 186.5,55C 186.167,54.6667 185.833,54.3333 185.5,54C 186.978,51.9614 188.978,51.1281 191.5,51.5C 191.36,49.8762 192.027,48.7096 193.5,48C 191.752,46.1299 189.585,44.9632 187,44.5C 186.383,43.5509 186.549,42.7175 187.5,42C 197.977,44.4659 208.144,44.6325 218,42.5C 222.102,43.8024 221.935,45.469 217.5,47.5C 218,48.5 218.5,49.5 219,50.5C 221.151,47.888 221.985,47.888 221.5,50.5C 223.624,51.1494 225.624,51.9827 227.5,53C 225.203,54.1597 225.536,55.1597 228.5,56C 227.075,57.7141 227.408,59.0475 229.5,60C 228.402,60.7697 228.402,61.603 229.5,62.5 Z"/></g>
<g><path style="opacity:1" fill="#6ccef2" d="M 228.5,65.5 C 229.256,67.2666 229.923,69.0999 230.5,71C 230.181,74.0134 229.847,77.0134 229.5,80C 231.954,83.1798 230.954,85.3464 226.5,86.5C 225.583,85.8728 224.583,85.5394 223.5,85.5C 223.52,83.857 222.853,82.5237 221.5,81.5C 222.833,81.1667 224.167,80.8333 225.5,80.5C 223.736,77.7852 222.736,74.7852 222.5,71.5C 221.5,71.5 220.5,71.5 219.5,71.5C 219.78,68.7276 219.113,66.2276 217.5,64C 211.952,63.944 206.452,63.7773 201,63.5C 199.188,63.4934 197.688,64.16 196.5,65.5C 192.096,69.3033 188.929,73.9699 187,79.5C 186.667,79.1667 186.333,78.8333 186,78.5C 185.746,81.195 185.579,83.695 185.5,86C 186.711,86.7869 187.711,87.4536 188.5,88C 186.998,89.752 185.998,91.752 185.5,94C 185.639,95.301 186.305,96.1344 187.5,96.5C 185.154,99.8708 182.821,103.204 180.5,106.5C 179.095,100.346 177.762,94.1791 176.5,88C 178.291,85.586 179.957,83.086 181.5,80.5C 180.259,78.0634 179.259,75.5634 178.5,73C 180.229,71.2111 180.896,69.0444 180.5,66.5C 183.168,64.2765 186.168,62.2765 189.5,60.5C 190.95,59.1502 191.617,57.4835 191.5,55.5C 196.795,55.5258 201.961,54.8591 207,53.5C 210.153,55.7342 213.153,56.0675 216,54.5C 221.005,57.346 225.172,61.0126 228.5,65.5 Z"/></g>
<g><path style="opacity:1" fill="#80d2f2" d="M 223.5,85.5 C 207.855,77.494 195.855,81.1606 187.5,96.5C 186.305,96.1344 185.639,95.301 185.5,94C 185.998,91.752 186.998,89.752 188.5,88C 187.711,87.4536 186.711,86.7869 185.5,86C 185.579,83.695 185.746,81.195 186,78.5C 186.333,78.8333 186.667,79.1667 187,79.5C 188.929,73.9699 192.096,69.3033 196.5,65.5C 197.688,64.16 199.188,63.4934 201,63.5C 206.452,63.7773 211.952,63.944 217.5,64C 219.113,66.2276 219.78,68.7276 219.5,71.5C 220.5,71.5 221.5,71.5 222.5,71.5C 222.736,74.7852 223.736,77.7852 225.5,80.5C 224.167,80.8333 222.833,81.1667 221.5,81.5C 222.853,82.5237 223.52,83.857 223.5,85.5 Z"/></g>
<g><path style="opacity:1" fill="#3cb0e3" d="M 250.5,49.5 C 257.957,54.2871 263.624,60.6204 267.5,68.5C 267.013,69.4734 266.513,70.4734 266,71.5C 265.346,70.3044 264.846,70.3044 264.5,71.5C 266.608,73.306 268.274,75.4727 269.5,78C 267.76,79.827 266.093,79.6603 264.5,77.5C 263.679,80.4465 263.179,83.4465 263,86.5C 262.667,84.8333 262.333,83.1667 262,81.5C 261.78,86.3707 260.946,91.0374 259.5,95.5C 257.833,95.5 256.167,95.5 254.5,95.5C 255.044,102.995 252.377,108.828 246.5,113C 247.28,114.073 247.113,115.24 246,116.5C 244.956,114.285 244.29,111.952 244,109.5C 243.03,109.376 242.197,109.376 241.5,109.5C 241.5,108.167 241.5,106.833 241.5,105.5C 240.325,105.719 239.325,105.386 238.5,104.5C 240.998,100.612 243.498,96.6118 246,92.5C 247.217,90.4798 247.383,88.4798 246.5,86.5C 249.325,82.6189 250.158,78.2856 249,73.5C 248.543,70.204 247.709,67.0373 246.5,64C 248.301,63.6827 248.634,63.016 247.5,62C 248.938,61.7811 250.271,61.2811 251.5,60.5C 249.988,59.7506 248.988,58.584 248.5,57C 248.892,54.7275 249.559,52.2275 250.5,49.5 Z"/></g>
<g><path style="opacity:1" fill="#42bfef" d="M 166.5,80.5 C 166.365,87.7181 168.532,94.0514 173,99.5C 173.49,100.793 173.657,102.127 173.5,103.5C 174.833,103.5 176.167,103.5 177.5,103.5C 177.34,105.199 177.506,106.866 178,108.5C 178.417,107.244 179.25,106.577 180.5,106.5C 176.749,113.671 172.749,120.671 168.5,127.5C 168.726,124.751 168.393,122.084 167.5,119.5C 168.766,116.824 169.599,114.157 170,111.5C 168.686,112.313 167.519,113.313 166.5,114.5C 164.478,110.644 162.978,106.644 162,102.5C 161.667,103.167 161.333,103.833 161,104.5C 158.41,103.55 156.41,101.884 155,99.5C 153.343,95.3628 151.843,91.1961 150.5,87C 151.333,84.9189 151.333,82.7522 150.5,80.5C 148.833,80.5 147.167,80.5 145.5,80.5C 145.5,81.5 145.5,82.5 145.5,83.5C 144.041,83.4326 142.708,83.7659 141.5,84.5C 143.043,79.9758 145.377,75.9758 148.5,72.5C 150.127,69.8861 152.461,67.8861 155.5,66.5C 156.331,62.4412 158.498,59.4412 162,57.5C 164.677,59.1172 167.177,60.9506 169.5,63C 167.959,64.5793 166.792,66.4127 166,68.5C 165.667,67.8333 165.333,67.1667 165,66.5C 164.095,70.8188 163.762,75.1521 164,79.5C 164.951,79.8836 165.784,80.2169 166.5,80.5 Z"/></g>
<g><path style="opacity:1" fill="#56bde9" d="M 249.5,49.5 C 249.833,49.5 250.167,49.5 250.5,49.5C 249.559,52.2275 248.892,54.7275 248.5,57C 248.988,58.584 249.988,59.7506 251.5,60.5C 250.271,61.2811 248.938,61.7811 247.5,62C 248.634,63.016 248.301,63.6827 246.5,64C 247.709,67.0373 248.543,70.204 249,73.5C 250.158,78.2856 249.325,82.6189 246.5,86.5C 247.383,88.4798 247.217,90.4798 246,92.5C 243.498,96.6118 240.998,100.612 238.5,104.5C 239.325,105.386 240.325,105.719 241.5,105.5C 241.5,106.833 241.5,108.167 241.5,109.5C 240.833,109.5 240.5,109.833 240.5,110.5C 235.094,102.031 229.427,93.6972 223.5,85.5C 224.583,85.5394 225.583,85.8728 226.5,86.5C 230.954,85.3464 231.954,83.1798 229.5,80C 229.847,77.0134 230.181,74.0134 230.5,71C 229.923,69.0999 229.256,67.2666 228.5,65.5C 229.404,64.791 229.737,63.791 229.5,62.5C 230.117,62.3893 230.617,62.056 231,61.5C 234.025,66.3821 235.858,71.7154 236.5,77.5C 237.553,76.5617 238.22,75.395 238.5,74C 238.313,67.6981 237.313,61.3647 235.5,55C 235.833,54.6667 236.167,54.3333 236.5,54C 233.694,52.6949 232.86,50.5282 234,47.5C 234.333,47.8333 234.667,48.1667 235,48.5C 239.034,47.0702 239.201,45.7368 235.5,44.5C 236.167,44.1667 236.833,43.8333 237.5,43.5C 241.292,45.9698 245.292,47.9698 249.5,49.5 Z"/></g>
<g><path style="opacity:1" fill="#2ba2da" d="M 267.5,68.5 C 273.586,76.997 278.919,85.997 283.5,95.5C 281.583,94.8836 280.416,93.5503 280,91.5C 279.667,91.8333 279.333,92.1667 279,92.5C 277.173,89.67 275.007,86.3367 272.5,82.5C 272.167,83.1667 271.833,83.8333 271.5,84.5C 273.094,87.9855 273.76,91.6521 273.5,95.5C 271.799,95.0338 270.299,95.0338 269,95.5C 265.301,103.242 261.967,111.242 259,119.5C 258.586,119.957 258.086,120.291 257.5,120.5C 254.165,115.008 252.665,115.675 253,122.5C 251.961,123.71 250.794,124.71 249.5,125.5C 246.799,120.827 243.799,116.493 240.5,112.5C 240.5,111.833 240.5,111.167 240.5,110.5C 240.5,109.833 240.833,109.5 241.5,109.5C 242.197,109.376 243.03,109.376 244,109.5C 244.29,111.952 244.956,114.285 246,116.5C 247.113,115.24 247.28,114.073 246.5,113C 252.377,108.828 255.044,102.995 254.5,95.5C 256.167,95.5 257.833,95.5 259.5,95.5C 260.946,91.0374 261.78,86.3707 262,81.5C 262.333,83.1667 262.667,84.8333 263,86.5C 263.179,83.4465 263.679,80.4465 264.5,77.5C 266.093,79.6603 267.76,79.827 269.5,78C 268.274,75.4727 266.608,73.306 264.5,71.5C 264.846,70.3044 265.346,70.3044 266,71.5C 266.513,70.4734 267.013,69.4734 267.5,68.5 Z"/></g>
<g><path style="opacity:1" fill="#2bb2e8" d="M 168.5,127.5 C 167.32,130.54 165.653,133.206 163.5,135.5C 163.678,134.305 164.011,133.138 164.5,132C 162.687,127.891 161.187,123.725 160,119.5C 159.692,120.308 159.192,120.975 158.5,121.5C 157.646,120.478 156.646,119.645 155.5,119C 152.898,117.86 150.231,117.027 147.5,116.5C 147.349,112.686 145.349,111.019 141.5,111.5C 141.688,109.897 141.188,108.563 140,107.5C 138.333,108.833 136.667,110.167 135,111.5C 135.086,107.982 134.92,104.649 134.5,101.5C 131.765,104.626 129.265,107.959 127,111.5C 127,113.5 127,115.5 127,117.5C 126.29,116.027 125.124,115.36 123.5,115.5C 129.251,104.995 135.251,94.6616 141.5,84.5C 142.708,83.7659 144.041,83.4326 145.5,83.5C 145.5,82.5 145.5,81.5 145.5,80.5C 147.167,80.5 148.833,80.5 150.5,80.5C 151.333,82.7522 151.333,84.9189 150.5,87C 151.843,91.1961 153.343,95.3628 155,99.5C 156.41,101.884 158.41,103.55 161,104.5C 161.333,103.833 161.667,103.167 162,102.5C 162.978,106.644 164.478,110.644 166.5,114.5C 167.519,113.313 168.686,112.313 170,111.5C 169.599,114.157 168.766,116.824 167.5,119.5C 168.393,122.084 168.726,124.751 168.5,127.5 Z"/></g>
<g><path style="opacity:1" fill="#1392d3" d="M 283.5,95.5 C 286.335,99.1638 288.668,103.164 290.5,107.5C 290.657,108.873 290.49,110.207 290,111.5C 286.657,111.09 283.49,109.924 280.5,108C 278.355,109.818 278.355,111.318 280.5,112.5C 277.736,116.58 274.403,120.246 270.5,123.5C 269.269,124.651 269.269,125.817 270.5,127C 269.333,127.5 268.5,128.333 268,129.5C 267.586,129.043 267.086,128.709 266.5,128.5C 262.837,129.664 260.837,132.164 260.5,136C 260.755,137.326 261.422,138.326 262.5,139C 261,141.167 259.833,141 259,138.5C 258.617,139.056 258.117,139.389 257.5,139.5C 254.821,134.806 252.155,130.139 249.5,125.5C 250.794,124.71 251.961,123.71 253,122.5C 252.665,115.675 254.165,115.008 257.5,120.5C 258.086,120.291 258.586,119.957 259,119.5C 261.967,111.242 265.301,103.242 269,95.5C 270.299,95.0338 271.799,95.0338 273.5,95.5C 273.76,91.6521 273.094,87.9855 271.5,84.5C 271.833,83.8333 272.167,83.1667 272.5,82.5C 275.007,86.3367 277.173,89.67 279,92.5C 279.333,92.1667 279.667,91.8333 280,91.5C 280.416,93.5503 281.583,94.8836 283.5,95.5 Z"/></g>
<g><path style="opacity:1" fill="#15a8e5" d="M 163.5,135.5 C 163.443,136.609 163.11,137.609 162.5,138.5C 161.833,138.167 161.167,137.833 160.5,137.5C 158.732,135.921 156.899,134.254 155,132.5C 153,131.167 151,131.167 149,132.5C 147.01,131.182 145.01,129.848 143,128.5C 141.913,130.932 141.413,130.598 141.5,127.5C 137.445,127.176 133.445,127.509 129.5,128.5C 130.773,131.271 129.773,132.938 126.5,133.5C 125.839,129.935 124.173,129.102 121.5,131C 121.833,131.333 122.167,131.667 122.5,132C 120.067,133.13 117.734,134.296 115.5,135.5C 115.649,134.448 115.483,133.448 115,132.5C 114.313,134.568 114.48,136.568 115.5,138.5C 113.827,140.086 111.827,140.753 109.5,140.5C 109.481,142.06 109.148,143.56 108.5,145C 106.343,146.612 105.009,148.778 104.5,151.5C 103.643,152.425 102.643,153.092 101.5,153.5C 108.442,140.57 115.775,127.903 123.5,115.5C 125.124,115.36 126.29,116.027 127,117.5C 127,115.5 127,113.5 127,111.5C 129.265,107.959 131.765,104.626 134.5,101.5C 134.92,104.649 135.086,107.982 135,111.5C 136.667,110.167 138.333,108.833 140,107.5C 141.188,108.563 141.688,109.897 141.5,111.5C 145.349,111.019 147.349,112.686 147.5,116.5C 150.231,117.027 152.898,117.86 155.5,119C 156.646,119.645 157.646,120.478 158.5,121.5C 159.192,120.975 159.692,120.308 160,119.5C 161.187,123.725 162.687,127.891 164.5,132C 164.011,133.138 163.678,134.305 163.5,135.5 Z"/></g>
<g><path style="opacity:1" fill="#0580c6" d="M 290.5,107.5 C 296.336,116.5 301.669,125.833 306.5,135.5C 304.289,134.963 302.289,133.963 300.5,132.5C 299.833,132.667 299.167,132.833 298.5,133C 299.5,133.333 300.5,133.667 301.5,134C 299.893,135.049 299.227,136.549 299.5,138.5C 297.268,136.995 295.101,135.995 293,135.5C 291.161,137.339 289.328,139.172 287.5,141C 288.328,141.915 289.328,142.581 290.5,143C 287.5,143.333 284.5,143.667 281.5,144C 278.97,147.237 275.637,149.07 271.5,149.5C 271.849,152.463 270.849,154.796 268.5,156.5C 270.029,161.015 272.362,165.015 275.5,168.5C 278.076,173.446 280.743,178.446 283.5,183.5C 283.376,184.107 283.043,184.44 282.5,184.5C 277.404,175.299 272.07,166.299 266.5,157.5C 264.046,151.259 261.046,145.259 257.5,139.5C 258.117,139.389 258.617,139.056 259,138.5C 259.833,141 261,141.167 262.5,139C 261.422,138.326 260.755,137.326 260.5,136C 260.837,132.164 262.837,129.664 266.5,128.5C 267.086,128.709 267.586,129.043 268,129.5C 268.5,128.333 269.333,127.5 270.5,127C 269.269,125.817 269.269,124.651 270.5,123.5C 274.403,120.246 277.736,116.58 280.5,112.5C 278.355,111.318 278.355,109.818 280.5,108C 283.49,109.924 286.657,111.09 290,111.5C 290.49,110.207 290.657,108.873 290.5,107.5 Z"/></g>
<g><path style="opacity:1" fill="#059fe0" d="M 160.5,137.5 C 159.37,139.315 158.704,141.315 158.5,143.5C 155.478,143.572 153.312,142.238 152,139.5C 150.887,140.711 149.72,140.711 148.5,139.5C 147.808,140.025 147.308,140.692 147,141.5C 146.439,140.978 145.772,140.645 145,140.5C 142.039,142.032 138.872,142.866 135.5,143C 136.167,143.333 136.833,143.667 137.5,144C 136.382,145.074 135.382,146.24 134.5,147.5C 132.164,146.406 132.164,145.073 134.5,143.5C 133.045,142.255 131.711,142.422 130.5,144C 131.833,145 131.833,146 130.5,147C 128.608,147.973 126.608,148.64 124.5,149C 125.328,149.915 126.328,150.581 127.5,151C 125.709,151.415 124.376,152.415 123.5,154C 121.076,154.597 119.243,153.763 118,151.5C 117.5,151.667 117,151.833 116.5,152C 120.756,154.723 120.422,155.89 115.5,155.5C 115.5,156.833 115.5,158.167 115.5,159.5C 114.167,159.5 112.833,159.5 111.5,159.5C 111.649,158.448 111.483,157.448 111,156.5C 109.806,158.623 109.14,160.957 109,163.5C 108.586,163.957 108.086,164.291 107.5,164.5C 106,162.167 104.5,159.833 103,157.5C 102.722,162.362 100.222,164.696 95.5,164.5C 95.5,166.833 95.5,169.167 95.5,171.5C 94.5,171.5 93.5,171.5 92.5,171.5C 92.3573,173.262 92.6906,174.929 93.5,176.5C 91.703,177.695 90.703,179.362 90.5,181.5C 88.64,180.929 86.9733,180.929 85.5,181.5C 90.3309,171.833 95.6643,162.5 101.5,153.5C 102.643,153.092 103.643,152.425 104.5,151.5C 105.009,148.778 106.343,146.612 108.5,145C 109.148,143.56 109.481,142.06 109.5,140.5C 111.827,140.753 113.827,140.086 115.5,138.5C 114.48,136.568 114.313,134.568 115,132.5C 115.483,133.448 115.649,134.448 115.5,135.5C 117.734,134.296 120.067,133.13 122.5,132C 122.167,131.667 121.833,131.333 121.5,131C 124.173,129.102 125.839,129.935 126.5,133.5C 129.773,132.938 130.773,131.271 129.5,128.5C 133.445,127.509 137.445,127.176 141.5,127.5C 141.413,130.598 141.913,130.932 143,128.5C 145.01,129.848 147.01,131.182 149,132.5C 151,131.167 153,131.167 155,132.5C 156.899,134.254 158.732,135.921 160.5,137.5 Z"/></g>
<g><path style="opacity:1" fill="#034266" d="M 240.5,112.5 C 243.799,116.493 246.799,120.827 249.5,125.5C 252.155,130.139 254.821,134.806 257.5,139.5C 261.046,145.259 264.046,151.259 266.5,157.5C 262.432,165.302 258.098,172.968 253.5,180.5C 254.292,177.467 254.292,174.134 253.5,170.5C 250.318,167.577 247.651,164.243 245.5,160.5C 243.659,159.77 241.825,159.103 240,158.5C 239.814,156.1 239.314,153.766 238.5,151.5C 237.833,152.167 237.167,152.833 236.5,153.5C 234.167,152 231.833,150.5 229.5,149C 228.359,146.692 226.692,144.859 224.5,143.5C 221.597,146.587 219.764,150.254 219,154.5C 217.729,155.883 216.229,156.883 214.5,157.5C 222.72,141.764 231.387,126.764 240.5,112.5 Z"/></g>
<g><path style="opacity:1" fill="#0179c2" d="M 306.5,135.5 C 306.739,137.467 306.406,139.301 305.5,141C 306.208,143.768 307.708,144.601 310,143.5C 310.896,146.703 309.896,149.036 307,150.5C 305.739,150.241 304.739,149.574 304,148.5C 301.544,150.321 298.711,150.988 295.5,150.5C 295.762,151.978 295.429,153.311 294.5,154.5C 291.982,156.464 289.316,157.13 286.5,156.5C 285.618,157.76 284.618,158.926 283.5,160C 283.833,160.333 284.167,160.667 284.5,161C 281.527,162.224 280.86,164.224 282.5,167C 281.953,167.925 281.287,168.758 280.5,169.5C 278.93,167.621 277.264,167.288 275.5,168.5C 272.362,165.015 270.029,161.015 268.5,156.5C 270.849,154.796 271.849,152.463 271.5,149.5C 275.637,149.07 278.97,147.237 281.5,144C 284.5,143.667 287.5,143.333 290.5,143C 289.328,142.581 288.328,141.915 287.5,141C 289.328,139.172 291.161,137.339 293,135.5C 295.101,135.995 297.268,136.995 299.5,138.5C 299.227,136.549 299.893,135.049 301.5,134C 300.5,133.667 299.5,133.333 298.5,133C 299.167,132.833 299.833,132.667 300.5,132.5C 302.289,133.963 304.289,134.963 306.5,135.5 Z"/></g>
<g><path style="opacity:1" fill="#0498db" d="M 160.5,137.5 C 161.167,137.833 161.833,138.167 162.5,138.5C 158.07,146.369 153.403,154.036 148.5,161.5C 148.345,158.391 147.678,155.391 146.5,152.5C 144.322,154.439 141.989,155.106 139.5,154.5C 141.946,155.983 141.612,157.149 138.5,158C 142.085,160.528 142.418,163.528 139.5,167C 137.741,167.798 136.074,167.631 134.5,166.5C 136.334,164.502 137.334,162.168 137.5,159.5C 135.799,159.034 134.299,159.034 133,159.5C 130.459,162.712 128.959,166.379 128.5,170.5C 127.808,169.975 127.308,169.308 127,168.5C 125.071,171.852 122.404,173.185 119,172.5C 116.833,174.833 114.667,177.167 112.5,179.5C 111.253,177.994 111.253,176.494 112.5,175C 111.929,173.795 111.262,172.628 110.5,171.5C 110.025,174.926 109.025,178.092 107.5,181C 105.888,181.72 104.388,181.554 103,180.5C 100.146,182.598 97.4794,184.931 95,187.5C 93.0363,184.612 93.2029,181.779 95.5,179C 93.364,179.44 91.6974,180.773 90.5,183C 89.552,183.483 88.552,183.649 87.5,183.5C 86.8562,186.316 86.5228,188.982 86.5,191.5C 84.5787,192.641 82.5787,192.808 80.5,192C 82.0609,191.682 83.2276,190.849 84,189.5C 84.4966,187.19 84.6633,184.857 84.5,182.5C 84.5,181.833 84.8333,181.5 85.5,181.5C 86.9733,180.929 88.64,180.929 90.5,181.5C 90.703,179.362 91.703,177.695 93.5,176.5C 92.6906,174.929 92.3573,173.262 92.5,171.5C 93.5,171.5 94.5,171.5 95.5,171.5C 95.5,169.167 95.5,166.833 95.5,164.5C 100.222,164.696 102.722,162.362 103,157.5C 104.5,159.833 106,162.167 107.5,164.5C 108.086,164.291 108.586,163.957 109,163.5C 109.14,160.957 109.806,158.623 111,156.5C 111.483,157.448 111.649,158.448 111.5,159.5C 112.833,159.5 114.167,159.5 115.5,159.5C 115.5,158.167 115.5,156.833 115.5,155.5C 120.422,155.89 120.756,154.723 116.5,152C 117,151.833 117.5,151.667 118,151.5C 119.243,153.763 121.076,154.597 123.5,154C 124.376,152.415 125.709,151.415 127.5,151C 126.328,150.581 125.328,149.915 124.5,149C 126.608,148.64 128.608,147.973 130.5,147C 131.833,146 131.833,145 130.5,144C 131.711,142.422 133.045,142.255 134.5,143.5C 132.164,145.073 132.164,146.406 134.5,147.5C 135.382,146.24 136.382,145.074 137.5,144C 136.833,143.667 136.167,143.333 135.5,143C 138.872,142.866 142.039,142.032 145,140.5C 145.772,140.645 146.439,140.978 147,141.5C 147.308,140.692 147.808,140.025 148.5,139.5C 149.72,140.711 150.887,140.711 152,139.5C 153.312,142.238 155.478,143.572 158.5,143.5C 158.704,141.315 159.37,139.315 160.5,137.5 Z"/></g>
<g><path style="opacity:1" fill="#0373bb" d="M 306.5,135.5 C 311.334,142.496 315.667,149.829 319.5,157.5C 317.348,158.077 317.015,159.244 318.5,161C 314.441,162.106 311.275,160.939 309,157.5C 308.316,158.784 308.483,159.951 309.5,161C 307.178,162.924 304.511,164.257 301.5,165C 300.185,166.395 300.519,167.395 302.5,168C 300.5,168.333 298.5,168.667 296.5,169C 295.663,170.011 295.33,171.178 295.5,172.5C 294.167,172.5 292.833,172.5 291.5,172.5C 291.5,173.5 291.5,174.5 291.5,175.5C 286.249,176.638 283.916,179.972 284.5,185.5C 284.167,185.5 283.833,185.5 283.5,185.5C 282.833,185.5 282.5,185.167 282.5,184.5C 283.043,184.44 283.376,184.107 283.5,183.5C 280.743,178.446 278.076,173.446 275.5,168.5C 277.264,167.288 278.93,167.621 280.5,169.5C 281.287,168.758 281.953,167.925 282.5,167C 280.86,164.224 281.527,162.224 284.5,161C 284.167,160.667 283.833,160.333 283.5,160C 284.618,158.926 285.618,157.76 286.5,156.5C 289.316,157.13 291.982,156.464 294.5,154.5C 295.429,153.311 295.762,151.978 295.5,150.5C 298.711,150.988 301.544,150.321 304,148.5C 304.739,149.574 305.739,150.241 307,150.5C 309.896,149.036 310.896,146.703 310,143.5C 307.708,144.601 306.208,143.768 305.5,141C 306.406,139.301 306.739,137.467 306.5,135.5 Z"/></g>
<g><path style="opacity:1" fill="#016cb7" d="M 319.5,157.5 C 321.75,160.999 323.75,164.665 325.5,168.5C 324.603,167.402 323.77,167.402 323,168.5C 322.257,170.441 322.424,172.274 323.5,174C 322.643,174.689 321.977,175.522 321.5,176.5C 320.635,177.583 319.635,177.749 318.5,177C 319.591,174.936 319.758,172.769 319,170.5C 314.525,177.522 308.025,181.522 299.5,182.5C 299.833,183.167 300.167,183.833 300.5,184.5C 297.69,185.146 295.856,186.812 295,189.5C 294.333,188.833 293.667,188.167 293,187.5C 291.883,188.949 291.216,190.616 291,192.5C 290.333,191.167 289.667,191.167 289,192.5C 288.667,190.5 288.333,188.5 288,186.5C 286.687,187.287 285.52,186.954 284.5,185.5C 283.916,179.972 286.249,176.638 291.5,175.5C 291.5,174.5 291.5,173.5 291.5,172.5C 292.833,172.5 294.167,172.5 295.5,172.5C 295.33,171.178 295.663,170.011 296.5,169C 298.5,168.667 300.5,168.333 302.5,168C 300.519,167.395 300.185,166.395 301.5,165C 304.511,164.257 307.178,162.924 309.5,161C 308.483,159.951 308.316,158.784 309,157.5C 311.275,160.939 314.441,162.106 318.5,161C 317.015,159.244 317.348,158.077 319.5,157.5 Z"/></g>
<g><path style="opacity:1" fill="#0392d6" d="M 148.5,161.5 C 146.517,164.717 144.017,167.717 141,170.5C 139.725,172.717 138.725,175.051 138,177.5C 137.275,175.842 136.108,175.342 134.5,176C 133.044,178.412 131.71,180.912 130.5,183.5C 129.147,182.315 127.98,180.981 127,179.5C 125.324,181.315 124.491,183.149 124.5,185C 122.797,185.745 121.13,186.579 119.5,187.5C 118.558,187.392 117.725,187.059 117,186.5C 115.426,187.984 114.093,189.651 113,191.5C 112.259,190.359 111.425,190.359 110.5,191.5C 109.269,192.651 109.269,193.817 110.5,195C 108.231,195.758 106.064,195.591 104,194.5C 102.456,196.468 101.289,198.635 100.5,201C 97.0711,201.871 93.7378,203.038 90.5,204.5C 89.9017,205.795 89.4017,207.128 89,208.5C 87.3005,207.594 85.4672,207.261 83.5,207.5C 83.5,208.833 83.5,210.167 83.5,211.5C 82.5,211.5 81.5,211.5 80.5,211.5C 81.1106,207.971 79.7773,206.138 76.5,206C 77.7596,207.814 77.7596,209.647 76.5,211.5C 75.1374,210.121 74.1374,210.287 73.5,212C 74.2052,213.422 74.5385,214.755 74.5,216C 73.9647,218.109 72.9647,218.609 71.5,217.5C 70.8076,218.025 70.3076,218.692 70,219.5C 67.4264,218.08 65.593,218.747 64.5,221.5C 65.074,217.675 66.2406,214.009 68,210.5C 73.3634,200.997 78.8634,191.664 84.5,182.5C 84.6633,184.857 84.4966,187.19 84,189.5C 83.2276,190.849 82.0609,191.682 80.5,192C 82.5787,192.808 84.5787,192.641 86.5,191.5C 86.5228,188.982 86.8562,186.316 87.5,183.5C 88.552,183.649 89.552,183.483 90.5,183C 91.6974,180.773 93.364,179.44 95.5,179C 93.2029,181.779 93.0363,184.612 95,187.5C 97.4794,184.931 100.146,182.598 103,180.5C 104.388,181.554 105.888,181.72 107.5,181C 109.025,178.092 110.025,174.926 110.5,171.5C 111.262,172.628 111.929,173.795 112.5,175C 111.253,176.494 111.253,177.994 112.5,179.5C 114.667,177.167 116.833,174.833 119,172.5C 122.404,173.185 125.071,171.852 127,168.5C 127.308,169.308 127.808,169.975 128.5,170.5C 128.959,166.379 130.459,162.712 133,159.5C 134.299,159.034 135.799,159.034 137.5,159.5C 137.334,162.168 136.334,164.502 134.5,166.5C 136.074,167.631 137.741,167.798 139.5,167C 142.418,163.528 142.085,160.528 138.5,158C 141.612,157.149 141.946,155.983 139.5,154.5C 141.989,155.106 144.322,154.439 146.5,152.5C 147.678,155.391 148.345,158.391 148.5,161.5 Z"/></g>
<g><path style="opacity:1" fill="#034770" d="M 253.5,180.5 C 250.386,185.221 247.386,190.055 244.5,195C 244.833,195.333 245.167,195.667 245.5,196C 242.589,200.242 239.589,204.409 236.5,208.5C 236.141,206.234 236.808,204.401 238.5,203C 238.167,202.667 237.833,202.333 237.5,202C 238.448,201.517 239.448,201.351 240.5,201.5C 242.503,197.461 244.003,193.128 245,188.5C 245.333,188.833 245.667,189.167 246,189.5C 246.424,187.485 247.258,185.651 248.5,184C 247.767,182.234 247.433,180.401 247.5,178.5C 245.088,178.756 243.421,177.756 242.5,175.5C 241.416,176.665 240.583,177.998 240,179.5C 238.117,173.954 234.284,170.454 228.5,169C 228.499,167.601 228.165,166.101 227.5,164.5C 225.263,163.868 223.597,162.535 222.5,160.5C 221.333,162.167 220.167,163.833 219,165.5C 218.187,163.564 217.687,161.564 217.5,159.5C 221.555,159.352 222.055,158.352 219,156.5C 215.509,157.918 213.842,160.584 214,164.5C 210.147,168.916 206.314,173.25 202.5,177.5C 206,170.494 210,163.827 214.5,157.5C 216.229,156.883 217.729,155.883 219,154.5C 219.764,150.254 221.597,146.587 224.5,143.5C 226.692,144.859 228.359,146.692 229.5,149C 231.833,150.5 234.167,152 236.5,153.5C 237.167,152.833 237.833,152.167 238.5,151.5C 239.314,153.766 239.814,156.1 240,158.5C 241.825,159.103 243.659,159.77 245.5,160.5C 247.651,164.243 250.318,167.577 253.5,170.5C 254.292,174.134 254.292,177.467 253.5,180.5 Z"/></g>
<g><path style="opacity:1" fill="#01507f" d="M 236.5,208.5 C 235.649,210.882 234.316,212.882 232.5,214.5C 232.67,213.178 232.337,212.011 231.5,211C 232.624,210.751 233.624,210.251 234.5,209.5C 233.011,208.02 231.345,207.187 229.5,207C 229.833,206.667 230.167,206.333 230.5,206C 228.61,204.109 227.11,201.942 226,199.5C 225.692,200.308 225.192,200.975 224.5,201.5C 223.534,199.604 223.201,197.604 223.5,195.5C 222.167,195.5 220.833,195.5 219.5,195.5C 219.594,192.459 218.094,190.793 215,190.5C 213.558,187.95 212.392,185.284 211.5,182.5C 208.936,179.696 207.103,180.029 206,183.5C 205.586,183.043 205.086,182.709 204.5,182.5C 202.867,184.503 200.867,185.836 198.5,186.5C 198.59,191.689 196.256,195.022 191.5,196.5C 194.412,189.668 198.079,183.334 202.5,177.5C 206.314,173.25 210.147,168.916 214,164.5C 213.842,160.584 215.509,157.918 219,156.5C 222.055,158.352 221.555,159.352 217.5,159.5C 217.687,161.564 218.187,163.564 219,165.5C 220.167,163.833 221.333,162.167 222.5,160.5C 223.597,162.535 225.263,163.868 227.5,164.5C 228.165,166.101 228.499,167.601 228.5,169C 234.284,170.454 238.117,173.954 240,179.5C 240.583,177.998 241.416,176.665 242.5,175.5C 243.421,177.756 245.088,178.756 247.5,178.5C 247.433,180.401 247.767,182.234 248.5,184C 247.258,185.651 246.424,187.485 246,189.5C 245.667,189.167 245.333,188.833 245,188.5C 244.003,193.128 242.503,197.461 240.5,201.5C 239.448,201.351 238.448,201.517 237.5,202C 237.833,202.333 238.167,202.667 238.5,203C 236.808,204.401 236.141,206.234 236.5,208.5 Z"/></g>
<g><path style="opacity:1" fill="#0465b1" d="M 325.5,168.5 C 328.669,172.833 331.336,177.5 333.5,182.5C 333.657,183.873 333.49,185.207 333,186.5C 329.703,182.566 329.203,182.732 331.5,187C 329.968,187.7 328.968,188.866 328.5,190.5C 327.675,191.386 326.675,191.719 325.5,191.5C 325.449,189.43 326.115,187.597 327.5,186C 325.39,184.25 323.723,182.083 322.5,179.5C 322.167,180.5 321.833,181.5 321.5,182.5C 322.499,185.528 323.166,188.361 323.5,191C 321.335,192.339 319.335,193.839 317.5,195.5C 316.558,195.392 315.725,195.059 315,194.5C 312.861,198.055 309.695,200.055 305.5,200.5C 303.561,202.989 303.228,202.656 304.5,199.5C 304.192,198.692 303.692,198.025 303,197.5C 301.778,200.789 299.945,203.622 297.5,206C 298.274,208.154 298.941,210.321 299.5,212.5C 293.414,204.003 288.081,195.003 283.5,185.5C 283.833,185.5 284.167,185.5 284.5,185.5C 285.52,186.954 286.687,187.287 288,186.5C 288.333,188.5 288.667,190.5 289,192.5C 289.667,191.167 290.333,191.167 291,192.5C 291.216,190.616 291.883,188.949 293,187.5C 293.667,188.167 294.333,188.833 295,189.5C 295.856,186.812 297.69,185.146 300.5,184.5C 300.167,183.833 299.833,183.167 299.5,182.5C 308.025,181.522 314.525,177.522 319,170.5C 319.758,172.769 319.591,174.936 318.5,177C 319.635,177.749 320.635,177.583 321.5,176.5C 321.977,175.522 322.643,174.689 323.5,174C 322.424,172.274 322.257,170.441 323,168.5C 323.77,167.402 324.603,167.402 325.5,168.5 Z"/></g>
<g><path style="opacity:1" fill="#025990" d="M 232.5,214.5 C 228.323,223.668 223.323,232.335 217.5,240.5C 219.409,236.039 221.075,231.372 222.5,226.5C 221.919,224.276 220.586,223.443 218.5,224C 216.32,225.761 214.654,227.927 213.5,230.5C 213.167,230 212.833,229.5 212.5,229C 213.167,227.667 213.833,226.333 214.5,225C 212.905,221.388 211.905,217.555 211.5,213.5C 209.154,207.187 207.82,207.187 207.5,213.5C 206.167,213.5 204.833,213.5 203.5,213.5C 202.167,210.5 202.167,207.5 203.5,204.5C 202.178,204.67 201.011,204.337 200,203.5C 199.333,204.833 199.333,206.167 200,207.5C 200.333,206.833 200.667,206.167 201,205.5C 201.014,211.683 202.014,217.683 204,223.5C 204.818,226.227 204.652,228.894 203.5,231.5C 202.679,228.553 202.179,225.553 202,222.5C 201.667,222.833 201.333,223.167 201,223.5C 198.876,220.675 196.376,218.175 193.5,216C 195.744,213.624 196.077,210.957 194.5,208C 195.833,207.667 197.167,207.333 198.5,207C 195.607,205.851 192.607,205.351 189.5,205.5C 189.279,209.803 186.945,212.137 182.5,212.5C 182.532,214.619 181.532,215.952 179.5,216.5C 183,209.494 187,202.827 191.5,196.5C 196.256,195.022 198.59,191.689 198.5,186.5C 200.867,185.836 202.867,184.503 204.5,182.5C 205.086,182.709 205.586,183.043 206,183.5C 207.103,180.029 208.936,179.696 211.5,182.5C 212.392,185.284 213.558,187.95 215,190.5C 218.094,190.793 219.594,192.459 219.5,195.5C 220.833,195.5 222.167,195.5 223.5,195.5C 223.201,197.604 223.534,199.604 224.5,201.5C 225.192,200.975 225.692,200.308 226,199.5C 227.11,201.942 228.61,204.109 230.5,206C 230.167,206.333 229.833,206.667 229.5,207C 231.345,207.187 233.011,208.02 234.5,209.5C 233.624,210.251 232.624,210.751 231.5,211C 232.337,212.011 232.67,213.178 232.5,214.5 Z"/></g>
<g><path style="opacity:1" fill="#035fac" d="M 333.5,182.5 C 337.251,186.995 340.251,191.995 342.5,197.5C 341.883,197.389 341.383,197.056 341,196.5C 340.29,197.973 339.124,198.64 337.5,198.5C 337.769,200.429 337.269,202.095 336,203.5C 335.804,201.714 334.971,200.381 333.5,199.5C 329.79,202.717 325.956,205.717 322,208.5C 317.354,207.847 312.52,207.18 307.5,206.5C 307.643,210.389 309.476,211.389 313,209.5C 314.726,209.946 316.226,210.779 317.5,212C 315.633,212.711 314.133,212.211 313,210.5C 312.626,211.416 312.126,212.25 311.5,213C 313.992,214.249 313.825,215.416 311,216.5C 308.546,215.603 305.713,214.937 302.5,214.5C 302.5,215.833 302.5,217.167 302.5,218.5C 300.992,216.819 299.992,214.819 299.5,212.5C 298.941,210.321 298.274,208.154 297.5,206C 299.945,203.622 301.778,200.789 303,197.5C 303.692,198.025 304.192,198.692 304.5,199.5C 303.228,202.656 303.561,202.989 305.5,200.5C 309.695,200.055 312.861,198.055 315,194.5C 315.725,195.059 316.558,195.392 317.5,195.5C 319.335,193.839 321.335,192.339 323.5,191C 323.166,188.361 322.499,185.528 321.5,182.5C 321.833,181.5 322.167,180.5 322.5,179.5C 323.723,182.083 325.39,184.25 327.5,186C 326.115,187.597 325.449,189.43 325.5,191.5C 326.675,191.719 327.675,191.386 328.5,190.5C 328.968,188.866 329.968,187.7 331.5,187C 329.203,182.732 329.703,182.566 333,186.5C 333.49,185.207 333.657,183.873 333.5,182.5 Z"/></g>
<g><path style="opacity:1" fill="#088bcf" d="M 148.5,161.5 C 138.003,181.166 127.003,200.5 115.5,219.5C 115.365,215.562 113.865,212.228 111,209.5C 108.631,210.927 108.131,212.761 109.5,215C 102.393,214.369 96.2267,216.202 91,220.5C 89.9914,222.025 89.4914,223.692 89.5,225.5C 85.3301,225.333 81.3301,226 77.5,227.5C 77.762,228.978 77.4287,230.311 76.5,231.5C 72.3255,231.579 69.6589,233.579 68.5,237.5C 67.4104,236.609 67.4104,235.609 68.5,234.5C 67.5,233.167 66.5,233.167 65.5,234.5C 66.8034,236.589 66.3034,238.256 64,239.5C 63.6667,238.833 63.3333,238.167 63,237.5C 62.2483,240.894 62.4149,244.227 63.5,247.5C 61.2795,250.975 60.9461,254.642 62.5,258.5C 62.5,260.5 62.5,262.5 62.5,264.5C 58.6927,252.039 58.526,239.372 62,226.5C 62.3736,224.509 63.207,222.842 64.5,221.5C 65.593,218.747 67.4264,218.08 70,219.5C 70.3076,218.692 70.8076,218.025 71.5,217.5C 72.9647,218.609 73.9647,218.109 74.5,216C 74.5385,214.755 74.2052,213.422 73.5,212C 74.1374,210.287 75.1374,210.121 76.5,211.5C 77.7596,209.647 77.7596,207.814 76.5,206C 79.7773,206.138 81.1106,207.971 80.5,211.5C 81.5,211.5 82.5,211.5 83.5,211.5C 83.5,210.167 83.5,208.833 83.5,207.5C 85.4672,207.261 87.3005,207.594 89,208.5C 89.4017,207.128 89.9017,205.795 90.5,204.5C 93.7378,203.038 97.0711,201.871 100.5,201C 101.289,198.635 102.456,196.468 104,194.5C 106.064,195.591 108.231,195.758 110.5,195C 109.269,193.817 109.269,192.651 110.5,191.5C 111.425,190.359 112.259,190.359 113,191.5C 114.093,189.651 115.426,187.984 117,186.5C 117.725,187.059 118.558,187.392 119.5,187.5C 121.13,186.579 122.797,185.745 124.5,185C 124.491,183.149 125.324,181.315 127,179.5C 127.98,180.981 129.147,182.315 130.5,183.5C 131.71,180.912 133.044,178.412 134.5,176C 136.108,175.342 137.275,175.842 138,177.5C 138.725,175.051 139.725,172.717 141,170.5C 144.017,167.717 146.517,164.717 148.5,161.5 Z"/></g>
<g><path style="opacity:1" fill="#0457a6" d="M 342.5,197.5 C 346.017,202.534 349.017,207.867 351.5,213.5C 350.185,212.524 348.852,211.524 347.5,210.5C 347.167,211.167 346.833,211.833 346.5,212.5C 347.149,215.14 348.149,217.64 349.5,220C 349.167,220.833 348.833,221.667 348.5,222.5C 347.876,220.042 346.376,218.376 344,217.5C 343.775,221.685 342.608,225.518 340.5,229C 332.767,230.441 326.267,233.941 321,239.5C 320,238.5 319,237.5 318,236.5C 317.902,238.619 317.069,240.286 315.5,241.5C 314.507,246.12 314.173,250.786 314.5,255.5C 313.833,255.5 313.167,255.5 312.5,255.5C 313.937,249.465 313.77,243.465 312,237.5C 309.334,230.835 306.167,224.501 302.5,218.5C 302.5,217.167 302.5,215.833 302.5,214.5C 305.713,214.937 308.546,215.603 311,216.5C 313.825,215.416 313.992,214.249 311.5,213C 312.126,212.25 312.626,211.416 313,210.5C 314.133,212.211 315.633,212.711 317.5,212C 316.226,210.779 314.726,209.946 313,209.5C 309.476,211.389 307.643,210.389 307.5,206.5C 312.52,207.18 317.354,207.847 322,208.5C 325.956,205.717 329.79,202.717 333.5,199.5C 334.971,200.381 335.804,201.714 336,203.5C 337.269,202.095 337.769,200.429 337.5,198.5C 339.124,198.64 340.29,197.973 341,196.5C 341.383,197.056 341.883,197.389 342.5,197.5 Z"/></g>
<g><path style="opacity:1" fill="#0261a0" d="M 217.5,240.5 C 216.89,242.434 215.89,244.101 214.5,245.5C 215.052,243.669 215.052,242.003 214.5,240.5C 214.846,239.304 215.346,239.304 216,240.5C 215.729,237.167 214.396,234.167 212,231.5C 210.836,234.135 209.669,236.802 208.5,239.5C 206.869,237.941 206.036,235.941 206,233.5C 205.667,235.833 205.333,238.167 205,240.5C 204.667,239.833 204.333,239.167 204,238.5C 203.333,239.833 202.667,239.833 202,238.5C 201.667,239.167 201.333,239.833 201,240.5C 199.301,239.594 197.467,239.261 195.5,239.5C 195.72,236.6 195.054,233.933 193.5,231.5C 192.808,232.025 192.308,232.692 192,233.5C 190.48,229.639 188.147,226.305 185,223.5C 183.766,231.145 184.599,238.479 187.5,245.5C 183.743,245.286 183.076,246.286 185.5,248.5C 184.456,249.623 183.79,250.956 183.5,252.5C 185.915,260.898 183.248,263.231 175.5,259.5C 175.423,258.25 174.756,257.417 173.5,257C 175.27,253.008 175.77,248.841 175,244.5C 174.282,243.549 173.449,243.383 172.5,244C 173.777,246.466 173.777,248.966 172.5,251.5C 170.889,250.68 170.222,249.346 170.5,247.5C 168.339,247.174 166.506,246.174 165,244.5C 164.056,245.263 163.556,246.263 163.5,247.5C 164.043,248.864 164.21,250.197 164,251.5C 162.644,250.62 161.144,250.286 159.5,250.5C 165.666,238.83 172.332,227.496 179.5,216.5C 181.532,215.952 182.532,214.619 182.5,212.5C 186.945,212.137 189.279,209.803 189.5,205.5C 192.607,205.351 195.607,205.851 198.5,207C 197.167,207.333 195.833,207.667 194.5,208C 196.077,210.957 195.744,213.624 193.5,216C 196.376,218.175 198.876,220.675 201,223.5C 201.333,223.167 201.667,222.833 202,222.5C 202.179,225.553 202.679,228.553 203.5,231.5C 204.652,228.894 204.818,226.227 204,223.5C 202.014,217.683 201.014,211.683 201,205.5C 200.667,206.167 200.333,206.833 200,207.5C 199.333,206.167 199.333,204.833 200,203.5C 201.011,204.337 202.178,204.67 203.5,204.5C 202.167,207.5 202.167,210.5 203.5,213.5C 204.833,213.5 206.167,213.5 207.5,213.5C 207.82,207.187 209.154,207.187 211.5,213.5C 211.905,217.555 212.905,221.388 214.5,225C 213.833,226.333 213.167,227.667 212.5,229C 212.833,229.5 213.167,230 213.5,230.5C 214.654,227.927 216.32,225.761 218.5,224C 220.586,223.443 221.919,224.276 222.5,226.5C 221.075,231.372 219.409,236.039 217.5,240.5 Z"/></g>
<g><path style="opacity:1" fill="#0385cb" d="M 115.5,219.5 C 111.685,225.966 108.351,232.633 105.5,239.5C 102.989,236.084 101.655,232.418 101.5,228.5C 101.709,227.006 102.376,225.839 103.5,225C 101.833,223 100.167,223 98.5,225C 98.8333,225.333 99.1667,225.667 99.5,226C 97.8456,228.296 96.1789,230.629 94.5,233C 92.1667,233.333 89.8333,233.667 87.5,234C 86.123,236.333 85.123,238.833 84.5,241.5C 83.3112,242.429 81.9778,242.762 80.5,242.5C 80.6495,241.448 80.4828,240.448 80,239.5C 77.4604,241.02 74.627,242.02 71.5,242.5C 69.7299,243.82 69.3966,245.32 70.5,247C 69.8095,248.067 69.3095,249.234 69,250.5C 67.4345,249.939 66.1011,250.606 65,252.5C 64.6667,252.167 64.3333,251.833 64,251.5C 63.3486,253.235 63.5153,254.902 64.5,256.5C 64.1445,257.522 63.4778,258.189 62.5,258.5C 60.9461,254.642 61.2795,250.975 63.5,247.5C 62.4149,244.227 62.2483,240.894 63,237.5C 63.3333,238.167 63.6667,238.833 64,239.5C 66.3034,238.256 66.8034,236.589 65.5,234.5C 66.5,233.167 67.5,233.167 68.5,234.5C 67.4104,235.609 67.4104,236.609 68.5,237.5C 69.6589,233.579 72.3255,231.579 76.5,231.5C 77.4287,230.311 77.762,228.978 77.5,227.5C 81.3301,226 85.3301,225.333 89.5,225.5C 89.4914,223.692 89.9914,222.025 91,220.5C 96.2267,216.202 102.393,214.369 109.5,215C 108.131,212.761 108.631,210.927 111,209.5C 113.865,212.228 115.365,215.562 115.5,219.5 Z"/></g>
<g><path style="opacity:1" fill="#025ea2" d="M 214.5,245.5 C 211,252.506 207,259.173 202.5,265.5C 202.5,264.167 202.5,262.833 202.5,261.5C 200.857,261.48 199.524,262.147 198.5,263.5C 198.167,263.167 197.833,262.833 197.5,262.5C 199.287,260.142 200.287,257.475 200.5,254.5C 198.069,253.503 195.902,253.503 194,254.5C 193.431,257.014 193.931,259.348 195.5,261.5C 195.167,263.167 194.167,264.167 192.5,264.5C 190.698,263.014 188.698,262.014 186.5,261.5C 186.201,259.396 186.534,257.396 187.5,255.5C 188.88,253.826 190.213,252.16 191.5,250.5C 190.954,248.865 190.62,247.199 190.5,245.5C 189.5,245.5 188.5,245.5 187.5,245.5C 184.599,238.479 183.766,231.145 185,223.5C 188.147,226.305 190.48,229.639 192,233.5C 192.308,232.692 192.808,232.025 193.5,231.5C 195.054,233.933 195.72,236.6 195.5,239.5C 197.467,239.261 199.301,239.594 201,240.5C 201.333,239.833 201.667,239.167 202,238.5C 202.667,239.833 203.333,239.833 204,238.5C 204.333,239.167 204.667,239.833 205,240.5C 205.333,238.167 205.667,235.833 206,233.5C 206.036,235.941 206.869,237.941 208.5,239.5C 209.669,236.802 210.836,234.135 212,231.5C 214.396,234.167 215.729,237.167 216,240.5C 215.346,239.304 214.846,239.304 214.5,240.5C 215.052,242.003 215.052,243.669 214.5,245.5 Z"/></g>
<g><path style="opacity:1" fill="#0b4ea1" d="M 351.5,213.5 C 352.767,216.529 354.434,219.363 356.5,222C 355.748,222.671 355.414,223.504 355.5,224.5C 356.88,229.919 356.713,235.253 355,240.5C 354.333,239.167 353.667,239.167 353,240.5C 351.254,237.019 349.087,236.685 346.5,239.5C 347.376,240.251 348.376,240.751 349.5,241C 344.03,241.341 339.53,243.508 336,247.5C 335.667,247.167 335.333,246.833 335,246.5C 330.961,251.54 326.294,255.873 321,259.5C 319.644,252.54 318.477,252.206 317.5,258.5C 316.5,258.5 315.5,258.5 314.5,258.5C 314.5,257.5 314.5,256.5 314.5,255.5C 314.173,250.786 314.507,246.12 315.5,241.5C 317.069,240.286 317.902,238.619 318,236.5C 319,237.5 320,238.5 321,239.5C 326.267,233.941 332.767,230.441 340.5,229C 342.608,225.518 343.775,221.685 344,217.5C 346.376,218.376 347.876,220.042 348.5,222.5C 348.833,221.667 349.167,220.833 349.5,220C 348.149,217.64 347.149,215.14 346.5,212.5C 346.833,211.833 347.167,211.167 347.5,210.5C 348.852,211.524 350.185,212.524 351.5,213.5 Z"/></g>
<g><path style="opacity:1" fill="#0180c8" d="M 105.5,239.5 C 103.925,242.953 102.591,246.62 101.5,250.5C 99.6471,251.76 97.8138,251.76 96,250.5C 91.9536,253.432 88.7869,257.099 86.5,261.5C 82.5874,262.248 78.9207,263.581 75.5,265.5C 72.7924,264.959 70.1257,264.292 67.5,263.5C 65.6829,264.767 64.0163,266.1 62.5,267.5C 62.5,266.5 62.5,265.5 62.5,264.5C 62.5,262.5 62.5,260.5 62.5,258.5C 63.4778,258.189 64.1445,257.522 64.5,256.5C 63.5153,254.902 63.3486,253.235 64,251.5C 64.3333,251.833 64.6667,252.167 65,252.5C 66.1011,250.606 67.4345,249.939 69,250.5C 69.3095,249.234 69.8095,248.067 70.5,247C 69.3966,245.32 69.7299,243.82 71.5,242.5C 74.627,242.02 77.4604,241.02 80,239.5C 80.4828,240.448 80.6495,241.448 80.5,242.5C 81.9778,242.762 83.3112,242.429 84.5,241.5C 85.123,238.833 86.123,236.333 87.5,234C 89.8333,233.667 92.1667,233.333 94.5,233C 96.1789,230.629 97.8456,228.296 99.5,226C 99.1667,225.667 98.8333,225.333 98.5,225C 100.167,223 101.833,223 103.5,225C 102.376,225.839 101.709,227.006 101.5,228.5C 101.655,232.418 102.989,236.084 105.5,239.5 Z"/></g>
<g><path style="opacity:1" fill="#18459a" d="M 355.5,224.5 C 356.887,226.877 357.721,229.543 358,232.5C 359.286,240.728 359.786,248.895 359.5,257C 357.991,261.589 356.324,266.089 354.5,270.5C 354.5,268.167 354.5,265.833 354.5,263.5C 356.381,259.024 356.881,254.358 356,249.5C 355.049,253.027 353.716,256.36 352,259.5C 349.777,257.277 348.444,254.611 348,251.5C 345.656,254.261 342.822,256.428 339.5,258C 341.277,260.152 342.777,259.985 344,257.5C 345.489,258.424 345.656,259.424 344.5,260.5C 335.665,261.053 327.832,264.053 321,269.5C 317.571,268.122 316.737,265.789 318.5,262.5C 318,261.5 317.5,260.5 317,259.5C 313.972,261.53 311.639,264.197 310,267.5C 308.644,266.62 307.144,266.286 305.5,266.5C 308.097,262.966 310.43,259.3 312.5,255.5C 313.167,255.5 313.833,255.5 314.5,255.5C 314.5,256.5 314.5,257.5 314.5,258.5C 315.5,258.5 316.5,258.5 317.5,258.5C 318.477,252.206 319.644,252.54 321,259.5C 326.294,255.873 330.961,251.54 335,246.5C 335.333,246.833 335.667,247.167 336,247.5C 339.53,243.508 344.03,241.341 349.5,241C 348.376,240.751 347.376,240.251 346.5,239.5C 349.087,236.685 351.254,237.019 353,240.5C 353.667,239.167 354.333,239.167 355,240.5C 356.713,235.253 356.88,229.919 355.5,224.5 Z"/></g>
<g><path style="opacity:1" fill="#0166b2" d="M 175.5,259.5 C 175.717,264.23 175.383,268.897 174.5,273.5C 173.842,274.398 173.176,275.398 172.5,276.5C 171.833,275.833 171.167,275.167 170.5,274.5C 169.376,276.369 168.543,278.369 168,280.5C 167.667,280.167 167.333,279.833 167,279.5C 165.194,281.973 163.027,284.139 160.5,286C 162.037,287.11 162.703,288.61 162.5,290.5C 159.306,290.824 158.306,289.658 159.5,287C 158.234,286.691 157.067,286.191 156,285.5C 154.933,286.191 153.766,286.691 152.5,287C 153.308,287.308 153.975,287.808 154.5,288.5C 153.687,289.814 152.687,290.981 151.5,292C 147.226,293.47 143.226,295.47 139.5,298C 139.273,299.135 138.94,300.302 138.5,301.5C 134.863,301.143 131.196,301.643 127.5,303C 129.985,304.223 130.152,305.723 128,307.5C 125.352,305.861 122.519,304.528 119.5,303.5C 118.833,303.833 118.167,304.167 117.5,304.5C 121.07,305.114 121.403,306.448 118.5,308.5C 116.253,309.374 113.92,309.708 111.5,309.5C 111.567,310.959 111.234,312.292 110.5,313.5C 104.402,311.616 98.735,308.949 93.5,305.5C 93.5,305.167 93.5,304.833 93.5,304.5C 93.811,303.522 94.4777,302.855 95.5,302.5C 100.608,304.823 103.942,303.323 105.5,298C 106.996,297.493 108.163,297.993 109,299.5C 109.667,298.167 110.333,296.833 111,295.5C 111.414,295.957 111.914,296.291 112.5,296.5C 113.667,294.833 114.833,293.167 116,291.5C 117.011,292.337 118.178,292.67 119.5,292.5C 119.238,291.022 119.571,289.689 120.5,288.5C 124.051,288.048 127.385,287.048 130.5,285.5C 131.604,284.369 131.271,283.535 129.5,283C 131.356,280.327 133.689,279.827 136.5,281.5C 138.942,280.964 141.275,280.131 143.5,279C 142.833,278.667 142.167,278.333 141.5,278C 142.685,276.647 144.019,275.48 145.5,274.5C 146.057,272.765 146.39,271.098 146.5,269.5C 147.167,269.167 147.833,268.833 148.5,268.5C 149.167,269.833 149.833,271.167 150.5,272.5C 151.736,271.754 153.07,271.421 154.5,271.5C 156.497,268.426 158.163,265.26 159.5,262C 159.167,261.667 158.833,261.333 158.5,261C 159.5,260.167 160.5,259.333 161.5,258.5C 160.855,257.268 160.689,255.935 161,254.5C 159.632,256.815 158.799,256.815 158.5,254.5C 158.846,253.151 159.179,251.817 159.5,250.5C 161.144,250.286 162.644,250.62 164,251.5C 164.21,250.197 164.043,248.864 163.5,247.5C 163.556,246.263 164.056,245.263 165,244.5C 166.506,246.174 168.339,247.174 170.5,247.5C 170.222,249.346 170.889,250.68 172.5,251.5C 173.777,248.966 173.777,246.466 172.5,244C 173.449,243.383 174.282,243.549 175,244.5C 175.77,248.841 175.27,253.008 173.5,257C 174.756,257.417 175.423,258.25 175.5,259.5 Z"/></g>
<g><path style="opacity:1" fill="#065da6" d="M 187.5,245.5 C 188.5,245.5 189.5,245.5 190.5,245.5C 190.62,247.199 190.954,248.865 191.5,250.5C 190.213,252.16 188.88,253.826 187.5,255.5C 186.534,257.396 186.201,259.396 186.5,261.5C 188.698,262.014 190.698,263.014 192.5,264.5C 194.167,264.167 195.167,263.167 195.5,261.5C 193.931,259.348 193.431,257.014 194,254.5C 195.902,253.503 198.069,253.503 200.5,254.5C 200.287,257.475 199.287,260.142 197.5,262.5C 197.833,262.833 198.167,263.167 198.5,263.5C 199.524,262.147 200.857,261.48 202.5,261.5C 202.5,262.833 202.5,264.167 202.5,265.5C 191.291,292.208 171.625,309.042 143.5,316C 134.473,316.716 125.473,316.549 116.5,315.5C 125.318,314.507 134.318,314.173 143.5,314.5C 143.5,313.5 143.5,312.5 143.5,311.5C 146.141,312.263 148.808,312.43 151.5,312C 150.833,311.667 150.167,311.333 149.5,311C 153.237,309.332 153.237,307.999 149.5,307C 149.833,306.667 150.167,306.333 150.5,306C 153.514,306.145 156.514,306.645 159.5,307.5C 159.64,305.876 158.973,304.71 157.5,304C 158.793,303.51 160.127,303.343 161.5,303.5C 161.037,294.298 165.37,289.632 174.5,289.5C 174.935,286.387 173.935,285.721 171.5,287.5C 169.5,287 167.5,286.5 165.5,286C 166.253,284.513 167.086,284.346 168,285.5C 168.273,283.899 168.773,282.399 169.5,281C 171.198,281.497 172.865,281.33 174.5,280.5C 175.308,282.423 175.808,284.423 176,286.5C 177.001,281.007 179.501,276.34 183.5,272.5C 183,272.167 182.5,271.833 182,271.5C 179.595,273.372 177.095,274.039 174.5,273.5C 175.383,268.897 175.717,264.23 175.5,259.5C 183.248,263.231 185.915,260.898 183.5,252.5C 183.79,250.956 184.456,249.623 185.5,248.5C 183.076,246.286 183.743,245.286 187.5,245.5 Z"/></g>
<g><path style="opacity:1" fill="#0877bd" d="M 105.5,239.5 C 103.941,250.863 107.608,259.863 116.5,266.5C 114.243,267.401 112.743,269.068 112,271.5C 109.957,269.792 108.29,267.792 107,265.5C 105.919,267.728 105.419,270.061 105.5,272.5C 102.574,270.618 100.741,267.951 100,264.5C 98.8456,266.957 97.5123,266.957 96,264.5C 96.4387,266.759 96.9387,269.092 97.5,271.5C 96.1266,271.343 94.7932,271.51 93.5,272C 91.2005,273.725 89.0338,275.558 87,277.5C 86,276.833 85,276.167 84,275.5C 82.1653,277.449 80.9986,279.783 80.5,282.5C 79.8333,281.167 79.1667,279.833 78.5,278.5C 76.8154,281.027 75.1487,283.527 73.5,286C 77.3364,291.003 81.6697,295.503 86.5,299.5C 88.4352,298.85 90.4352,298.517 92.5,298.5C 92.5792,299.93 92.2458,301.264 91.5,302.5C 91.8555,303.522 92.5222,304.189 93.5,304.5C 93.5,304.833 93.5,305.167 93.5,305.5C 78.0486,297.045 67.7152,284.378 62.5,267.5C 64.0163,266.1 65.6829,264.767 67.5,263.5C 70.1257,264.292 72.7924,264.959 75.5,265.5C 78.9207,263.581 82.5874,262.248 86.5,261.5C 88.7869,257.099 91.9536,253.432 96,250.5C 97.8138,251.76 99.6471,251.76 101.5,250.5C 102.591,246.62 103.925,242.953 105.5,239.5 Z"/></g>
<g><path style="opacity:1" fill="#1d429b" d="M 354.5,263.5 C 353.533,262.194 352.199,261.527 350.5,261.5C 350.5,262.833 350.5,264.167 350.5,265.5C 347.181,267.654 343.515,268.987 339.5,269.5C 339.357,272.097 338.523,274.431 337,276.5C 336,276.167 335,275.833 334,275.5C 333.691,276.766 333.191,277.933 332.5,279C 328.25,280.813 323.917,282.313 319.5,283.5C 319.5,284.5 319.5,285.5 319.5,286.5C 317.146,286.838 314.813,287.338 312.5,288C 311.663,289.011 311.33,290.178 311.5,291.5C 306.81,292.346 302.81,294.512 299.5,298C 298.216,298.684 297.049,298.517 296,297.5C 293.989,299.489 291.989,301.489 290,303.5C 288.354,305.141 287.354,304.807 287,302.5C 284.79,306.22 281.623,308.554 277.5,309.5C 277.5,310.5 277.5,311.5 277.5,312.5C 276.167,312.5 274.833,312.5 273.5,312.5C 273.167,314.5 272.833,316.5 272.5,318.5C 271.448,318.649 270.448,318.483 269.5,318C 270.973,317.29 271.64,316.124 271.5,314.5C 270.127,314.343 268.793,314.51 267.5,315C 268.654,315.914 268.487,316.747 267,317.5C 263.683,315.865 260.183,314.699 256.5,314C 255.748,313.329 255.414,312.496 255.5,311.5C 256.873,311.657 258.207,311.49 259.5,311C 254.389,309.328 254.389,308.162 259.5,307.5C 259.147,305.365 259.98,304.032 262,303.5C 264.968,305.078 268.135,305.745 271.5,305.5C 271.5,304.5 271.5,303.5 271.5,302.5C 270.127,302.657 268.793,302.49 267.5,302C 268.981,301.02 270.315,299.853 271.5,298.5C 272.689,297.571 274.022,297.238 275.5,297.5C 275.5,296.167 275.5,294.833 275.5,293.5C 276.833,293.5 278.167,293.5 279.5,293.5C 279.34,291.801 279.506,290.134 280,288.5C 281.771,287.696 283.271,286.529 284.5,285C 287.726,284.907 290.726,285.74 293.5,287.5C 294.167,287.167 294.833,286.833 295.5,286.5C 290.773,282.948 285.439,281.114 279.5,281C 282.923,278.94 286.256,279.106 289.5,281.5C 292.535,279.699 295.869,279.032 299.5,279.5C 299.5,278.5 299.5,277.5 299.5,276.5C 291.72,276.186 291.72,275.02 299.5,273C 301.899,271.02 303.899,268.853 305.5,266.5C 307.144,266.286 308.644,266.62 310,267.5C 311.639,264.197 313.972,261.53 317,259.5C 317.5,260.5 318,261.5 318.5,262.5C 316.737,265.789 317.571,268.122 321,269.5C 327.832,264.053 335.665,261.053 344.5,260.5C 345.656,259.424 345.489,258.424 344,257.5C 342.777,259.985 341.277,260.152 339.5,258C 342.822,256.428 345.656,254.261 348,251.5C 348.444,254.611 349.777,257.277 352,259.5C 353.716,256.36 355.049,253.027 356,249.5C 356.881,254.358 356.381,259.024 354.5,263.5 Z"/></g>
<g><path style="opacity:0.02" fill="#333366" d="M 260.5,263.5 C 261.833,264.167 261.833,264.167 260.5,263.5 Z"/></g>
<g><path style="opacity:0.004" fill="#000000" d="M 262.5,264.5 C 263.833,265.167 263.833,265.167 262.5,264.5 Z"/></g>
<g><path style="opacity:1" fill="#253995" d="M 354.5,263.5 C 354.5,265.833 354.5,268.167 354.5,270.5C 352.597,278.252 348.93,285.586 343.5,292.5C 338.761,297.017 334.261,301.683 330,306.5C 329.667,306.167 329.333,305.833 329,305.5C 324.198,309.482 319.032,312.815 313.5,315.5C 306.739,313.997 300.073,315.163 293.5,319C 286.477,319.623 279.477,319.457 272.5,318.5C 272.833,316.5 273.167,314.5 273.5,312.5C 274.833,312.5 276.167,312.5 277.5,312.5C 277.5,311.5 277.5,310.5 277.5,309.5C 281.623,308.554 284.79,306.22 287,302.5C 287.354,304.807 288.354,305.141 290,303.5C 291.989,301.489 293.989,299.489 296,297.5C 297.049,298.517 298.216,298.684 299.5,298C 302.81,294.512 306.81,292.346 311.5,291.5C 311.33,290.178 311.663,289.011 312.5,288C 314.813,287.338 317.146,286.838 319.5,286.5C 319.5,285.5 319.5,284.5 319.5,283.5C 323.917,282.313 328.25,280.813 332.5,279C 333.191,277.933 333.691,276.766 334,275.5C 335,275.833 336,276.167 337,276.5C 338.523,274.431 339.357,272.097 339.5,269.5C 343.515,268.987 347.181,267.654 350.5,265.5C 350.5,264.167 350.5,262.833 350.5,261.5C 352.199,261.527 353.533,262.194 354.5,263.5 Z"/></g>
<g><path style="opacity:1" fill="#0373bb" d="M 116.5,266.5 C 123.711,270.757 131.378,272.09 139.5,270.5C 133.062,271.999 126.395,272.999 119.5,273.5C 116.067,274.6 114.067,276.933 113.5,280.5C 110.242,281.417 106.909,281.751 103.5,281.5C 102.95,286.229 100.45,287.896 96,286.5C 95.2496,287.126 94.4162,287.626 93.5,288C 95.25,289.754 95.9167,291.921 95.5,294.5C 92.3429,294.921 90.0095,293.755 88.5,291C 87.0563,290.219 85.723,290.386 84.5,291.5C 86.0267,293.193 87.3601,295.027 88.5,297C 87.244,297.417 86.5774,298.25 86.5,299.5C 81.6697,295.503 77.3364,291.003 73.5,286C 75.1487,283.527 76.8154,281.027 78.5,278.5C 79.1667,279.833 79.8333,281.167 80.5,282.5C 80.9986,279.783 82.1653,277.449 84,275.5C 85,276.167 86,276.833 87,277.5C 89.0338,275.558 91.2005,273.725 93.5,272C 94.7932,271.51 96.1266,271.343 97.5,271.5C 96.9387,269.092 96.4387,266.759 96,264.5C 97.5123,266.957 98.8456,266.957 100,264.5C 100.741,267.951 102.574,270.618 105.5,272.5C 105.419,270.061 105.919,267.728 107,265.5C 108.29,267.792 109.957,269.792 112,271.5C 112.743,269.068 114.243,267.401 116.5,266.5 Z"/></g>
<g><path style="opacity:1" fill="#0556a4" d="M 260.5,264.5 C 260.842,265.338 261.508,265.672 262.5,265.5C 267.655,270.409 273.655,273.743 280.5,275.5C 275.386,275.194 270.553,273.86 266,271.5C 262.736,274.744 258.902,277.244 254.5,279C 253.216,279.684 252.049,279.517 251,278.5C 246.729,282.228 242.562,285.894 238.5,289.5C 235.964,287.644 233.298,287.311 230.5,288.5C 231.5,290.167 232.833,291.5 234.5,292.5C 233.245,294.78 231.245,295.947 228.5,296C 229.056,296.383 229.389,296.883 229.5,297.5C 227.83,297.249 226.33,296.582 225,295.5C 221.501,291.328 218.834,286.662 217,281.5C 216.011,265.154 223.677,256.154 240,254.5C 242.925,254.523 245.759,255.023 248.5,256C 252.657,258.664 256.657,261.497 260.5,264.5 Z"/></g>
<g><path style="opacity:1" fill="#026cb6" d="M 159.5,250.5 C 159.179,251.817 158.846,253.151 158.5,254.5C 158.799,256.815 159.632,256.815 161,254.5C 160.689,255.935 160.855,257.268 161.5,258.5C 160.5,259.333 159.5,260.167 158.5,261C 158.833,261.333 159.167,261.667 159.5,262C 158.163,265.26 156.497,268.426 154.5,271.5C 153.07,271.421 151.736,271.754 150.5,272.5C 149.833,271.167 149.167,269.833 148.5,268.5C 147.833,268.833 147.167,269.167 146.5,269.5C 146.39,271.098 146.057,272.765 145.5,274.5C 144.019,275.48 142.685,276.647 141.5,278C 142.167,278.333 142.833,278.667 143.5,279C 141.275,280.131 138.942,280.964 136.5,281.5C 133.689,279.827 131.356,280.327 129.5,283C 131.271,283.535 131.604,284.369 130.5,285.5C 127.385,287.048 124.051,288.048 120.5,288.5C 119.571,289.689 119.238,291.022 119.5,292.5C 118.178,292.67 117.011,292.337 116,291.5C 114.833,293.167 113.667,294.833 112.5,296.5C 111.914,296.291 111.414,295.957 111,295.5C 110.333,296.833 109.667,298.167 109,299.5C 108.163,297.993 106.996,297.493 105.5,298C 103.942,303.323 100.608,304.823 95.5,302.5C 94.4777,302.855 93.811,303.522 93.5,304.5C 92.5222,304.189 91.8555,303.522 91.5,302.5C 92.2458,301.264 92.5792,299.93 92.5,298.5C 90.4352,298.517 88.4352,298.85 86.5,299.5C 86.5774,298.25 87.244,297.417 88.5,297C 87.3601,295.027 86.0267,293.193 84.5,291.5C 85.723,290.386 87.0563,290.219 88.5,291C 90.0095,293.755 92.3429,294.921 95.5,294.5C 95.9167,291.921 95.25,289.754 93.5,288C 94.4162,287.626 95.2496,287.126 96,286.5C 100.45,287.896 102.95,286.229 103.5,281.5C 106.909,281.751 110.242,281.417 113.5,280.5C 114.067,276.933 116.067,274.6 119.5,273.5C 126.395,272.999 133.062,271.999 139.5,270.5C 142.234,269.295 144.901,267.795 147.5,266C 152.125,261.216 156.125,256.049 159.5,250.5 Z"/></g>
<g><path style="opacity:1" fill="#124a9e" d="M 305.5,266.5 C 303.899,268.853 301.899,271.02 299.5,273C 291.72,275.02 291.72,276.186 299.5,276.5C 299.5,277.5 299.5,278.5 299.5,279.5C 295.869,279.032 292.535,279.699 289.5,281.5C 286.256,279.106 282.923,278.94 279.5,281C 285.439,281.114 290.773,282.948 295.5,286.5C 294.833,286.833 294.167,287.167 293.5,287.5C 290.726,285.74 287.726,284.907 284.5,285C 283.271,286.529 281.771,287.696 280,288.5C 279.506,290.134 279.34,291.801 279.5,293.5C 278.167,293.5 276.833,293.5 275.5,293.5C 275.5,294.833 275.5,296.167 275.5,297.5C 274.022,297.238 272.689,297.571 271.5,298.5C 270.315,299.853 268.981,301.02 267.5,302C 268.793,302.49 270.127,302.657 271.5,302.5C 271.5,303.5 271.5,304.5 271.5,305.5C 268.135,305.745 264.968,305.078 262,303.5C 259.98,304.032 259.147,305.365 259.5,307.5C 254.389,308.162 254.389,309.328 259.5,311C 258.207,311.49 256.873,311.657 255.5,311.5C 253.833,311.5 252.167,311.5 250.5,311.5C 242.565,308.047 235.565,303.38 229.5,297.5C 229.389,296.883 229.056,296.383 228.5,296C 231.245,295.947 233.245,294.78 234.5,292.5C 232.833,291.5 231.5,290.167 230.5,288.5C 233.298,287.311 235.964,287.644 238.5,289.5C 242.562,285.894 246.729,282.228 251,278.5C 252.049,279.517 253.216,279.684 254.5,279C 258.902,277.244 262.736,274.744 266,271.5C 270.553,273.86 275.386,275.194 280.5,275.5C 290.111,275.853 298.445,272.853 305.5,266.5 Z"/></g>
<g><path style="opacity:1" fill="#0260af" d="M 116.5,315.5 C 114.5,314.833 112.5,314.167 110.5,313.5C 111.234,312.292 111.567,310.959 111.5,309.5C 113.92,309.708 116.253,309.374 118.5,308.5C 121.403,306.448 121.07,305.114 117.5,304.5C 118.167,304.167 118.833,303.833 119.5,303.5C 122.519,304.528 125.352,305.861 128,307.5C 130.152,305.723 129.985,304.223 127.5,303C 131.196,301.643 134.863,301.143 138.5,301.5C 138.94,300.302 139.273,299.135 139.5,298C 143.226,295.47 147.226,293.47 151.5,292C 152.687,290.981 153.687,289.814 154.5,288.5C 153.975,287.808 153.308,287.308 152.5,287C 153.766,286.691 154.933,286.191 156,285.5C 157.067,286.191 158.234,286.691 159.5,287C 158.306,289.658 159.306,290.824 162.5,290.5C 162.703,288.61 162.037,287.11 160.5,286C 163.027,284.139 165.194,281.973 167,279.5C 167.333,279.833 167.667,280.167 168,280.5C 168.543,278.369 169.376,276.369 170.5,274.5C 171.167,275.167 171.833,275.833 172.5,276.5C 173.176,275.398 173.842,274.398 174.5,273.5C 177.095,274.039 179.595,273.372 182,271.5C 182.5,271.833 183,272.167 183.5,272.5C 179.501,276.34 177.001,281.007 176,286.5C 175.808,284.423 175.308,282.423 174.5,280.5C 172.865,281.33 171.198,281.497 169.5,281C 168.773,282.399 168.273,283.899 168,285.5C 167.086,284.346 166.253,284.513 165.5,286C 167.5,286.5 169.5,287 171.5,287.5C 173.935,285.721 174.935,286.387 174.5,289.5C 165.37,289.632 161.037,294.298 161.5,303.5C 160.127,303.343 158.793,303.51 157.5,304C 158.973,304.71 159.64,305.876 159.5,307.5C 156.514,306.645 153.514,306.145 150.5,306C 150.167,306.333 149.833,306.667 149.5,307C 153.237,307.999 153.237,309.332 149.5,311C 150.167,311.333 150.833,311.667 151.5,312C 148.808,312.43 146.141,312.263 143.5,311.5C 143.5,312.5 143.5,313.5 143.5,314.5C 134.318,314.173 125.318,314.507 116.5,315.5 Z"/></g>
<g><path style="opacity:0.876" fill="#29347b" d="M 250.5,311.5 C 252.167,311.5 253.833,311.5 255.5,311.5C 255.414,312.496 255.748,313.329 256.5,314C 260.183,314.699 263.683,315.865 267,317.5C 268.487,316.747 268.654,315.914 267.5,315C 268.793,314.51 270.127,314.343 271.5,314.5C 271.64,316.124 270.973,317.29 269.5,318C 270.448,318.483 271.448,318.649 272.5,318.5C 279.477,319.457 286.477,319.623 293.5,319C 300.073,315.163 306.739,313.997 313.5,315.5C 308.625,316.458 303.625,318.124 298.5,320.5C 283.854,322.399 269.521,320.565 255.5,315C 253.767,313.811 252.1,312.644 250.5,311.5 Z"/></g>
</svg>
